<svg id="Слой_1" data-name="Слой 1" xmlns="http://www.w3.org/2000/svg" viewBox="0 0 384.76 236"><defs><style>.cls-1{fill:#212b33;}.cls-2{fill:#2c323a;}.cls-3{fill:#cdd9e8;}.cls-4{fill:#c62626;}.cls-5{fill:#e2e24b;}.cls-6{fill:#37cc49;}.cls-7{font-size:25.76px;fill:#3162aa;}.cls-7,.cls-8{font-family:PartemRegular, Partem;}.cls-8{font-size:15.54px;fill:#225587;}</style></defs><path class="cls-1" d="M432.5,281.5v-8.61l-1-.34a37.71,37.71,0,0,1-13.21-7.66l-.81-.72-7.66,4.42-10.5-18.18,7.43-4.29-.25-1.08a38.77,38.77,0,0,1-1-8.54,38.2,38.2,0,0,1,.86-8l.23-1.07-8.3-4.8,10.5-18.18,8.27,4.78.81-.74a37.85,37.85,0,0,1,13.61-8l1-.34V192.5h21v7.32l1.06.33a37.93,37.93,0,0,1,14.57,8.3l.81.74,8.27-4.78,10.5,18.18-8.3,4.8.23,1.07a38.2,38.2,0,0,1,.86,8,38.77,38.77,0,0,1-1,8.54l-.25,1.08,7.43,4.29-10.5,18.18-7.66-4.42-.81.72a37.38,37.38,0,0,1-14.18,8l-1.06.33v8.32Zm11-61a16,16,0,1,0,16,16A16,16,0,0,0,443.5,220.5Z" transform="translate(-396.24 -191)"/><path d="M452,194v6.93l2.13.65a36.68,36.68,0,0,1,14,8l1.62,1.49,1.9-1.1,6-3.48,9,15.58-6.05,3.5-1.89,1.1.46,2.13a36.73,36.73,0,0,1-.11,15.93l-.5,2.16,1.92,1.11,5.17,3-9,15.58-5.42-3.13-1.88-1.08-1.62,1.44a35.93,35.93,0,0,1-13.61,7.65l-2.13.65V280H434v-8.19l-2.05-.69a36.1,36.1,0,0,1-12.69-7.35l-1.62-1.44-1.88,1.08-5.42,3.13-9-15.58,5.17-3,1.92-1.11-.5-2.16a36.73,36.73,0,0,1-.11-15.93l.46-2.13-1.89-1.1-6.05-3.5,9-15.58,6,3.48,1.9,1.1,1.62-1.48A36.24,36.24,0,0,1,432,201.88l2.05-.69V194h18m-8.5,60A17.5,17.5,0,1,0,426,236.5,17.52,17.52,0,0,0,443.5,254M455,191H431v8a39.52,39.52,0,0,0-14.14,8.31l-8.62-5-12,20.78,8.65,5a39.58,39.58,0,0,0,.12,17.23l-7.77,4.49,12,20.78,8-4.63A39.36,39.36,0,0,0,431,274v9h24v-8.71A39.25,39.25,0,0,0,469.74,266l8,4.63,12-20.78L482,245.37a39.58,39.58,0,0,0,.12-17.23l8.65-5-12-20.78-8.62,5A39.41,39.41,0,0,0,455,198.71V191Zm-11.5,60A14.5,14.5,0,1,1,458,236.5,14.5,14.5,0,0,1,443.5,251Z" transform="translate(-396.24 -191)"/><path class="cls-2" d="M443.5,266.5a30,30,0,1,1,30-30A30,30,0,0,1,443.5,266.5Zm0-46a16,16,0,1,0,16,16A16,16,0,0,0,443.5,220.5Z" transform="translate(-396.24 -191)"/><path d="M443.5,208A28.5,28.5,0,1,1,415,236.5,28.54,28.54,0,0,1,443.5,208m0,46A17.5,17.5,0,1,0,426,236.5,17.52,17.52,0,0,0,443.5,254m0-49A31.5,31.5,0,1,0,475,236.5,31.5,31.5,0,0,0,443.5,205Zm0,46A14.5,14.5,0,1,1,458,236.5,14.5,14.5,0,0,1,443.5,251Z" transform="translate(-396.24 -191)"/><path class="cls-2" d="M440.6,406.5V248.36a16.87,16.87,0,0,1,16.86-16.86H730.62a16.87,16.87,0,0,1,16.85,16.86V406.5Z" transform="translate(-396.24 -191)"/><path d="M730.62,233A15.37,15.37,0,0,1,746,248.36V405H442.1V248.36A15.38,15.38,0,0,1,457.46,233H730.62m0-3H457.46a18.36,18.36,0,0,0-18.36,18.36V407.69a.31.31,0,0,0,.31.31H748.66a.31.31,0,0,0,.31-.31V248.36A18.35,18.35,0,0,0,730.62,230Z" transform="translate(-396.24 -191)"/><path class="cls-1" d="M426.48,425.5a11,11,0,0,1-11-11v-8h364v8a11,11,0,0,1-11,11Z" transform="translate(-396.24 -191)"/><path d="M778,408v6.52a9.49,9.49,0,0,1-9.48,9.48h-342a9.49,9.49,0,0,1-9.48-9.48V408H778m3-3H414v9.52A12.48,12.48,0,0,0,426.48,427h342A12.48,12.48,0,0,0,781,414.52V405Z" transform="translate(-396.24 -191)"/><rect class="cls-3" x="58.99" y="56.5" width="276.83" height="148"/><path d="M730.56,249V394H456.73V249H730.56m3-3H453.73V397H733.56V246Z" transform="translate(-396.24 -191)"/><rect x="59.26" y="56.5" width="276" height="13"/><path d="M730,249v10H457V249H730m3-3H454v16H733V246Z" transform="translate(-396.24 -191)"/><circle class="cls-4" cx="75.76" cy="63" r="2.75"/><path d="M472,251.5a2.5,2.5,0,1,1-2.5,2.5,2.5,2.5,0,0,1,2.5-2.5m0-.5a3,3,0,1,0,3,3,3,3,0,0,0-3-3Z" transform="translate(-396.24 -191)"/><circle class="cls-5" cx="83.76" cy="63" r="2.75"/><path d="M480,251.5a2.5,2.5,0,1,1-2.5,2.5,2.5,2.5,0,0,1,2.5-2.5m0-.5a3,3,0,1,0,3,3,3,3,0,0,0-3-3Z" transform="translate(-396.24 -191)"/><circle class="cls-6" cx="91.76" cy="63" r="2.75"/><path d="M488,251.5a2.5,2.5,0,1,1-2.5,2.5,2.5,2.5,0,0,1,2.5-2.5m0-.5a3,3,0,1,0,3,3,3,3,0,0,0-3-3Z" transform="translate(-396.24 -191)"/><text class="cls-7" transform="translate(76.13 130.15)">Pavel Evtushenko</text><text class="cls-8" transform="translate(120.32 194.03) scale(1.21 1)">WEB DEVELOPER</text></svg>