<svg id="Слой_1" data-name="Слой 1" xmlns="http://www.w3.org/2000/svg" viewBox="0 0 384.76 236"><defs><style>.cls-1{fill:#fff;}.cls-2{font-size:25.76px;}.cls-2,.cls-3{font-family:PartemRegular, Partem;}.cls-3{font-size:15.54px;}</style></defs><path class="cls-1" d="M432.5,281.5v-8.61l-1-.34a37.76,37.76,0,0,1-13.22-7.66l-.81-.72-7.65,4.42-10.5-18.18,7.43-4.3-.25-1.08a38,38,0,0,1-.11-16.57l.23-1.07-8.3-4.8,10.5-18.18,8.27,4.78.81-.75a37.87,37.87,0,0,1,13.6-8l1-.34V192.5h21v7.32l1.06.32a38.19,38.19,0,0,1,14.57,8.3l.81.75,8.27-4.78,10.5,18.18-8.3,4.8.23,1.07a38,38,0,0,1-.11,16.57l-.25,1.08,7.43,4.3-10.5,18.18-7.65-4.42-.81.72a37.69,37.69,0,0,1-14.19,8l-1.06.32v8.32Z" transform="translate(-396.24 -191)"/><path d="M452,194v6.93l2.13.65a36.56,36.56,0,0,1,14,8l1.63,1.48,1.9-1.09,6-3.48,9,15.58-6.06,3.5-1.9,1.1.46,2.13a36.73,36.73,0,0,1,.83,7.73,36.27,36.27,0,0,1-.94,8.2l-.49,2.16,1.92,1.11,5.18,3-9,15.58-5.43-3.13-1.87-1.08-1.62,1.44a36.08,36.08,0,0,1-13.62,7.65l-2.13.65V280H434v-8.19l-2.05-.69a36.23,36.23,0,0,1-12.7-7.35l-1.62-1.44-1.87,1.08-5.43,3.13-9-15.58,5.18-3,1.92-1.11-.49-2.16a36.27,36.27,0,0,1-.94-8.2,36.73,36.73,0,0,1,.83-7.73l.46-2.13-1.9-1.1-6.06-3.5,9-15.58,6,3.48,1.9,1.09,1.63-1.48A36,36,0,0,1,432,201.88l2.05-.69V194h18m3-3H431v8a39.52,39.52,0,0,0-14.14,8.31l-8.62-5-12,20.78,8.65,5a39.58,39.58,0,0,0,.12,17.23l-7.77,4.49,12,20.78,8-4.63A39.36,39.36,0,0,0,431,274v9h24v-8.71A39.25,39.25,0,0,0,469.74,266l8,4.63,12-20.78L482,245.37a39.58,39.58,0,0,0,.12-17.23l8.65-5-12-20.78-8.62,5A39.41,39.41,0,0,0,455,198.71V191Z" transform="translate(-396.24 -191)"/><circle class="cls-1" cx="47.26" cy="45.5" r="30"/><path d="M443.5,208A28.5,28.5,0,1,1,415,236.5,28.54,28.54,0,0,1,443.5,208m0-3A31.5,31.5,0,1,0,475,236.5,31.5,31.5,0,0,0,443.5,205Z" transform="translate(-396.24 -191)"/><circle class="cls-1" cx="47.26" cy="45.5" r="13"/><path d="M443.5,225A11.5,11.5,0,1,1,432,236.5,11.51,11.51,0,0,1,443.5,225m0-3A14.5,14.5,0,1,0,458,236.5,14.5,14.5,0,0,0,443.5,222Z" transform="translate(-396.24 -191)"/><path class="cls-1" d="M440.6,406.5V248.36a16.87,16.87,0,0,1,16.86-16.86H730.62a16.87,16.87,0,0,1,16.85,16.86V406.5Z" transform="translate(-396.24 -191)"/><path d="M730.62,233A15.37,15.37,0,0,1,746,248.36V405H442.1V248.36A15.38,15.38,0,0,1,457.46,233H730.62m0-3H457.46a18.36,18.36,0,0,0-18.36,18.36V407.69a.31.31,0,0,0,.31.31H748.66a.31.31,0,0,0,.31-.31V248.36A18.35,18.35,0,0,0,730.62,230Z" transform="translate(-396.24 -191)"/><path class="cls-1" d="M426.48,425.5a11,11,0,0,1-11-11v-8h364v8a11,11,0,0,1-11,11Z" transform="translate(-396.24 -191)"/><path d="M778,408v6.52a9.49,9.49,0,0,1-9.48,9.48h-342a9.49,9.49,0,0,1-9.48-9.48V408H778m3-3H414v9.52A12.48,12.48,0,0,0,426.48,427h342A12.48,12.48,0,0,0,781,414.52V405Z" transform="translate(-396.24 -191)"/><rect class="cls-1" x="58.99" y="56.5" width="276.83" height="148"/><path d="M730.56,249V394H456.73V249H730.56m3-3H453.73V397H733.56V246Z" transform="translate(-396.24 -191)"/><rect class="cls-1" x="59.26" y="56.5" width="276" height="13"/><path d="M730,249v10H457V249H730m3-3H454v16H733V246Z" transform="translate(-396.24 -191)"/><circle class="cls-1" cx="75.76" cy="63" r="1.5"/><path d="M472,251a3,3,0,1,0,3,3,3,3,0,0,0-3-3Z" transform="translate(-396.24 -191)"/><circle class="cls-1" cx="83.76" cy="63" r="1.5"/><path d="M480,251a3,3,0,1,0,3,3,3,3,0,0,0-3-3Z" transform="translate(-396.24 -191)"/><circle class="cls-1" cx="91.76" cy="63" r="1.5"/><path d="M488,251a3,3,0,1,0,3,3,3,3,0,0,0-3-3Z" transform="translate(-396.24 -191)"/><text class="cls-2" transform="translate(76.14 130.15)">Pavel Evtushenko</text><text class="cls-3" transform="translate(120.32 194.03) scale(1.21 1)">WEB DEVELOPER</text></svg>