<svg id="Слой_1" data-name="Слой 1" xmlns="http://www.w3.org/2000/svg" viewBox="0 0 384.76 236"><defs><style>.cls-1{fill:#212b33;}.cls-2{fill:#2c323a;}.cls-3{fill:#cdd9e8;}.cls-4{font-size:25.76px;fill:#3162aa;}.cls-4,.cls-8{font-family:Poppins;}.cls-5{fill:#c62626;}.cls-6{fill:#e2e24b;}.cls-7{fill:#37cc49;}.cls-8{font-size:15.54px;fill:#225587;}</style></defs><path class="cls-1" d="M431.12,282.88v-9l-.08,0a39,39,0,0,1-13.7-7.93l-.06-.06-8,4.61-11.88-20.56,7.74-4.48,0-.09a39.31,39.31,0,0,1-.12-17.17l0-.09-8.62-5,11.88-20.56,8.59,5,.06-.06a39.12,39.12,0,0,1,14.1-8.28l.08,0v-8h23.76v7.68l.08,0a39.67,39.67,0,0,1,15.1,8.6l.06.06,8.59-5,11.88,20.56-8.62,5,0,.09a39.31,39.31,0,0,1-.12,17.17l0,.09,7.74,4.48-11.88,20.56-8-4.61-.06.06a38.85,38.85,0,0,1-14.7,8.25l-.08,0v8.68Zm12.38-61a14.62,14.62,0,1,0,14.62,14.62A14.64,14.64,0,0,0,443.5,221.88Z" transform="translate(-396.24 -191)"/><path d="M454.75,191.25v7.65l.18,0a39.49,39.49,0,0,1,15,8.57l.14.13.16-.09,8.4-4.86,11.75,20.35L482,227.92l-.15.09,0,.18a39.49,39.49,0,0,1-.12,17.12l0,.18.15.1,7.56,4.36L477.67,270.3l-7.81-4.51-.15-.09-.14.12a38.71,38.71,0,0,1-14.64,8.23l-.18.05v8.65h-23.5v-9l-.17-.06a38.91,38.91,0,0,1-13.65-7.91l-.14-.12-.15.09-7.81,4.51L397.58,250l7.56-4.36.15-.1,0-.18a39.49,39.49,0,0,1-.12-17.12l0-.18-.15-.09-8.44-4.87,11.75-20.35,8.4,4.86.16.09.14-.13a39.13,39.13,0,0,1,14.05-8.25l.17-.06v-8h23.5m-11.25,60a14.75,14.75,0,1,0-14.75-14.75,14.77,14.77,0,0,0,14.75,14.75M455,191H431v8a39.52,39.52,0,0,0-14.14,8.31l-8.62-5-12,20.78,8.65,5a39.58,39.58,0,0,0,.12,17.23l-7.77,4.49,12,20.78,8-4.63A39.36,39.36,0,0,0,431,274v9h24v-8.71A39.25,39.25,0,0,0,469.74,266l8,4.63,12-20.78L482,245.37a39.58,39.58,0,0,0,.12-17.23l8.65-5-12-20.78-8.62,5A39.41,39.41,0,0,0,455,198.71V191Zm-11.5,60A14.5,14.5,0,1,1,458,236.5,14.5,14.5,0,0,1,443.5,251Z" transform="translate(-396.24 -191)"/><path class="cls-2" d="M443.5,267.88a31.38,31.38,0,1,1,31.38-31.38A31.42,31.42,0,0,1,443.5,267.88Zm0-46a14.62,14.62,0,1,0,14.62,14.62A14.64,14.64,0,0,0,443.5,221.88Z" transform="translate(-396.24 -191)"/><path d="M443.5,205.25a31.25,31.25,0,1,1-31.25,31.25,31.29,31.29,0,0,1,31.25-31.25m0,46a14.75,14.75,0,1,0-14.75-14.75,14.77,14.77,0,0,0,14.75,14.75m0-46.25A31.5,31.5,0,1,0,475,236.5,31.5,31.5,0,0,0,443.5,205Zm0,46A14.5,14.5,0,1,1,458,236.5,14.5,14.5,0,0,1,443.5,251Z" transform="translate(-396.24 -191)"/><path class="cls-2" d="M439.41,407.88a.19.19,0,0,1-.18-.19V248.36a18.26,18.26,0,0,1,18.23-18.24H730.62a18.26,18.26,0,0,1,18.23,18.24V407.69a.19.19,0,0,1-.19.19Z" transform="translate(-396.24 -191)"/><path d="M730.62,230.25a18.12,18.12,0,0,1,18.1,18.11V407.69a.06.06,0,0,1-.06.06H439.41a.06.06,0,0,1-.06-.06V248.36a18.13,18.13,0,0,1,18.11-18.11H730.62m0-.25H457.46a18.36,18.36,0,0,0-18.36,18.36V407.69a.31.31,0,0,0,.31.31H748.66a.31.31,0,0,0,.31-.31V248.36A18.35,18.35,0,0,0,730.62,230Z" transform="translate(-396.24 -191)"/><path class="cls-1" d="M426.48,426.88a12.38,12.38,0,0,1-12.36-12.36v-9.4H780.88v9.4a12.38,12.38,0,0,1-12.36,12.36Z" transform="translate(-396.24 -191)"/><path d="M780.75,405.25v9.27a12.25,12.25,0,0,1-12.23,12.23h-342a12.25,12.25,0,0,1-12.23-12.23v-9.27h366.5M781,405H414v9.52A12.48,12.48,0,0,0,426.48,427h342A12.48,12.48,0,0,0,781,414.52V405Z" transform="translate(-396.24 -191)"/><rect class="cls-3" x="56.76" y="55" width="281" height="151"/><rect x="56.76" y="55" width="281" height="16"/><text class="cls-4" transform="translate(85 130.15)">Pavel Evtushenko</text><circle class="cls-5" cx="75.76" cy="63" r="3"/><circle class="cls-6" cx="83.76" cy="63" r="3"/><circle class="cls-7" cx="91.76" cy="63" r="3"/><text class="cls-8" transform="translate(120.32 194.03) scale(1.21 1)">WEB DEVELOPER</text></svg>